<?xml version="1.0" standalone="no"?>
<!DOCTYPE svg PUBLIC "-//W3C//DTD SVG 20010904//EN"
 "http://www.w3.org/TR/2001/REC-SVG-20010904/DTD/svg10.dtd">
<svg version="1.0" xmlns="http://www.w3.org/2000/svg"
 width="667.000000pt" height="667.000000pt" viewBox="0 0 667.000000 667.000000"
 preserveAspectRatio="xMidYMid meet">
<metadata>
Created by potrace 1.14, written by Peter Selinger 2001-2017
</metadata>
<g transform="translate(0.000000,667.000000) scale(0.100000,-0.100000)"
fill="#000000" stroke="none">
<path d="M3030 5559 c-154 -22 -273 -51 -405 -96 -55 -19 -106 -35 -112 -35
-7 -1 -13 -5 -13 -10 0 -4 -6 -8 -13 -8 -7 0 -38 -12 -68 -26 -113 -53 -184
-89 -189 -95 -3 -3 -21 -14 -40 -24 -19 -10 -70 -43 -114 -74 -43 -31 -85 -60
-94 -66 -8 -5 -23 -17 -32 -25 -10 -8 -43 -37 -76 -65 -180 -155 -346 -358
-476 -583 -36 -62 -68 -128 -68 -141 0 -6 -4 -11 -8 -11 -4 0 -16 -24 -27 -52
-10 -29 -21 -57 -25 -63 -17 -23 -89 -251 -105 -335 -3 -14 -8 -36 -10 -50 -3
-14 -8 -37 -10 -52 -3 -16 -7 -40 -10 -55 -19 -102 -27 -461 -13 -568 4 -27
10 -71 13 -96 3 -26 8 -55 10 -65 2 -11 11 -51 19 -90 9 -40 18 -78 20 -85 2
-8 14 -48 27 -89 12 -41 25 -79 29 -85 4 -5 10 -22 14 -38 4 -15 18 -52 31
-82 14 -29 25 -56 25 -58 0 -2 18 -36 39 -76 22 -39 37 -71 34 -71 -3 0 0 -7
8 -16 12 -14 9 -15 -22 -9 -38 7 -57 9 -149 20 -36 4 -76 9 -90 11 -93 11
-266 18 -452 18 -209 0 -218 -1 -247 -22 -17 -12 -32 -22 -35 -22 -3 0 -65
-36 -140 -80 -74 -44 -140 -80 -145 -80 -6 0 -11 -4 -11 -9 0 -5 -8 -11 -17
-15 -39 -12 -80 -43 -78 -56 2 -8 13 -49 26 -90 13 -41 24 -77 24 -80 1 -3 9
-31 18 -62 10 -32 17 -60 17 -63 0 -3 7 -19 15 -35 9 -17 13 -30 11 -30 -3 0
2 -19 10 -42 8 -23 11 -50 7 -62 -4 -12 -8 -23 -8 -26 -1 -3 -5 -18 -10 -35
-4 -16 -14 -40 -21 -53 -8 -12 -12 -22 -9 -22 2 0 0 -12 -5 -26 -7 -18 -7 -39
1 -67 14 -50 17 -67 18 -87 2 -33 15 -40 52 -29 35 10 184 46 229 54 14 3 36
8 50 12 14 3 32 7 40 8 66 10 107 17 120 20 16 5 52 11 115 20 22 4 54 9 70
11 17 3 44 7 60 9 17 1 62 6 100 10 39 4 84 9 100 11 232 24 721 23 905 -1 19
-3 55 -7 80 -10 25 -3 86 -13 135 -21 50 -9 101 -17 115 -19 44 -7 285 -73
346 -95 33 -12 68 -24 79 -27 11 -3 40 -14 65 -25 25 -12 51 -21 58 -21 6 0
12 -4 12 -8 0 -4 13 -12 29 -17 27 -10 45 -44 55 -102 1 -3 12 -26 24 -52 64
-129 220 -203 420 -197 42 1 95 6 117 12 22 5 45 10 50 11 98 20 234 179 237
275 1 17 6 35 12 40 21 17 338 124 398 134 13 2 30 6 38 10 15 5 60 17 90 23
8 2 60 13 115 24 115 24 171 33 203 34 12 1 22 3 22 6 0 3 10 5 23 6 12 0 47
4 77 7 158 20 270 27 475 29 164 1 347 -6 450 -17 22 -2 63 -7 90 -10 28 -3
68 -8 90 -11 22 -3 51 -7 65 -9 32 -4 192 -33 250 -45 25 -6 56 -13 70 -16 14
-2 33 -7 42 -10 9 -3 25 -6 35 -8 23 -5 183 -52 204 -61 18 -7 24 6 59 116 19
62 20 67 4 104 -39 95 -55 162 -43 192 6 15 12 35 14 44 4 19 57 192 91 299
29 89 29 96 7 103 -24 8 -77 40 -81 50 -2 4 -8 7 -13 7 -5 0 -61 32 -125 70
-64 39 -118 70 -120 70 -2 0 -23 12 -47 27 l-43 28 -225 -1 c-215 -1 -347 -7
-447 -19 -26 -3 -63 -8 -82 -10 -19 -3 -55 -7 -80 -10 -25 -3 -60 -7 -77 -10
-38 -4 -40 2 -15 36 9 13 35 62 56 109 21 47 42 93 47 102 9 19 49 128 52 143
2 6 5 15 8 20 4 6 10 24 14 40 4 17 9 39 12 50 3 11 9 43 13 70 4 28 11 62 14
78 6 27 9 43 20 107 14 79 16 99 23 190 10 148 5 369 -11 460 -3 14 -7 45 -10
70 -9 66 -53 244 -82 330 -52 151 -190 438 -216 448 -4 2 -8 8 -8 14 0 6 -11
26 -25 44 -14 18 -25 37 -25 42 0 6 -3 12 -8 14 -4 2 -21 21 -37 44 -17 23
-64 78 -105 124 -229 254 -437 416 -700 545 -107 53 -283 124 -305 125 -3 0
-18 6 -33 14 -15 8 -44 17 -62 19 -19 3 -35 6 -35 7 0 2 3 1 -135 28 -160 31
-190 34 -400 37 -146 2 -226 -2 -320 -16z"/>
</g>
</svg>
